HIERARCHY
ROOT hip
{
  OFFSET 0 0 0
  CHANNELS 6 Xposition Yposition Zposition Zrotation Yrotation Xrotation
  JOINT abdomen
  {
    OFFSET 0 20.6881 -0.73152
    CHANNELS 3 Zrotation Xrotation Yrotation
    JOINT chest
    {
      OFFSET 0 11.7043 -0.48768
      CHANNELS 3 Zrotation Xrotation Yrotation
      JOINT neck
      {
        OFFSET 0 22.1894 -2.19456
        CHANNELS 3 Zrotation Xrotation Yrotation
        JOINT head
        {
          OFFSET -0.24384 7.07133 1.2192
          CHANNELS 3 Zrotation Xrotation Yrotation
          JOINT leftEye
          {
            OFFSET 4.14528 8.04674 8.04672
            CHANNELS 3 Zrotation Xrotation Yrotation
            End Site
            {
              OFFSET 1 0 0
            }
          }
          JOINT rightEye
          {
            OFFSET -3.6576 8.04674 8.04672
            CHANNELS 3 Zrotation Xrotation Yrotation
            End Site
            {
              OFFSET 1 0 0
            }
          }
        }
      }
      JOINT rCollar
      {
        OFFSET -2.68224 19.2634 -4.8768
        CHANNELS 3 Zrotation Xrotation Yrotation
        JOINT rShldr
        {
          OFFSET -8.77824 -1.95073 1.46304
          CHANNELS 3 Zrotation Xrotation Yrotation
          JOINT rForeArm
          {
            OFFSET -28.1742 -1.7115 0.48768
            CHANNELS 3 Zrotation Xrotation Yrotation
            JOINT rHand
            {
              OFFSET -22.5879 0.773209 7.07136
              CHANNELS 3 Zrotation Xrotation Yrotation
              JOINT rThumb1
              {
                OFFSET -1.2192 -0.487915 3.41376
                CHANNELS 3 Zrotation Xrotation Yrotation
                JOINT rThumb2
                {
                  OFFSET -3.37035 -0.52449 3.41376
                  CHANNELS 3 Zrotation Xrotation Yrotation
                  End Site
                  {
                    OFFSET -1.78271 -1.18214 1.43049
                  }
                }
              }
              JOINT rIndex1
              {
                OFFSET -7.75947 0.938293 5.60832
                CHANNELS 3 Zrotation Xrotation Yrotation
                JOINT rIndex2
                {
                  OFFSET -2.54057 -0.884171 1.56538
                  CHANNELS 3 Zrotation Xrotation Yrotation
                  End Site
                  {
                    OFFSET -1.62519 -0.234802 1.16502
                  }
                }
              }
              JOINT rMid1
              {
                OFFSET -8.24714 1.18213 3.41376
                CHANNELS 3 Zrotation Xrotation Yrotation
                JOINT rMid2
                {
                  OFFSET -3.10165 -0.590103 1.0647
                  CHANNELS 3 Zrotation Xrotation Yrotation
                  End Site
                  {
                    OFFSET -2.48547 -0.328903 0.83742
                  }
                }
              }
              JOINT rRing1
              {
                OFFSET -8.82822 0.546677 1.51678
                CHANNELS 3 Zrotation Xrotation Yrotation
                JOINT rRing2
                {
                  OFFSET -2.60934 -0.819778 -0.0198488
                  CHANNELS 3 Zrotation Xrotation Yrotation
                  End Site
                  {
                    OFFSET -2.33842 -0.294052 0.168128
                  }
                }
              }
              JOINT rPinky1
              {
                OFFSET -8.27202 -0.0477905 -0.4584
                CHANNELS 3 Zrotation Xrotation Yrotation
                JOINT rPinky2
                {
                  OFFSET -1.82734 -0.647385 -0.700984
                  CHANNELS 3 Zrotation Xrotation Yrotation
                  End Site
                  {
                    OFFSET -1.69225 -0.51767 -0.607171
                  }
                }
              }
            }
          }
        }
      }
      JOINT lCollar
      {
        OFFSET 2.68224 19.2634 -4.8768
        CHANNELS 3 Zrotation Xrotation Yrotation
        JOINT lShldr
        {
          OFFSET 8.77824 -1.95073 1.46304
          CHANNELS 3 Zrotation Xrotation Yrotation
          JOINT lForeArm
          {
            OFFSET 28.1742 -1.7115 0.48768
            CHANNELS 3 Zrotation Xrotation Yrotation
            JOINT lHand
            {
              OFFSET 22.5879 0.773209 7.07136
              CHANNELS 3 Zrotation Xrotation Yrotation
              JOINT lThumb1
              {
                OFFSET 1.2192 -0.487915 3.41376
                CHANNELS 3 Zrotation Xrotation Yrotation
                JOINT lThumb2
                {
                  OFFSET 3.37035 -0.52449 3.41376
                  CHANNELS 3 Zrotation Xrotation Yrotation
                  End Site
                  {
                    OFFSET 1.78271 -1.18214 1.43049
                  }
                }
              }
              JOINT lIndex1
              {
                OFFSET 7.75947 0.938293 5.60832
                CHANNELS 3 Zrotation Xrotation Yrotation
                JOINT lIndex2
                {
                  OFFSET 2.54057 -0.884171 1.56538
                  CHANNELS 3 Zrotation Xrotation Yrotation
                  End Site
                  {
                    OFFSET 1.62519 -0.234802 1.16502
                  }
                }
              }
              JOINT lMid1
              {
                OFFSET 8.24714 1.18213 3.41376
                CHANNELS 3 Zrotation Xrotation Yrotation
                JOINT lMid2
                {
                  OFFSET 3.10165 -0.590103 1.0647
                  CHANNELS 3 Zrotation Xrotation Yrotation
                  End Site
                  {
                    OFFSET 2.48547 -0.328903 0.83742
                  }
                }
              }
              JOINT lRing1
              {
                OFFSET 8.82822 0.546677 1.51678
                CHANNELS 3 Zrotation Xrotation Yrotation
                JOINT lRing2
                {
                  OFFSET 2.60934 -0.819778 -0.0198488
                  CHANNELS 3 Zrotation Xrotation Yrotation
                  End Site
                  {
                    OFFSET 2.33842 -0.294052 0.168128
                  }
                }
              }
              JOINT lPinky1
              {
                OFFSET 8.27202 -0.0477905 -0.4584
                CHANNELS 3 Zrotation Xrotation Yrotation
                JOINT lPinky2
                {
                  OFFSET 1.82734 -0.647385 -0.700984
                  CHANNELS 3 Zrotation Xrotation Yrotation
                  End Site
                  {
                    OFFSET 1.69225 -0.51767 -0.607171
                  }
                }
              }
            }
          }
        }
      }
    }
  }
  JOINT rButtock
  {
    OFFSET -8.77824 4.35084 1.2192
    CHANNELS 3 Zrotation Xrotation Yrotation
    JOINT rThigh
    {
      OFFSET 0 -1.70687 -2.19456
      CHANNELS 3 Zrotation Xrotation Yrotation
      JOINT rShin
      {
        OFFSET 0 -36.8199 0.73152
        CHANNELS 3 Zrotation Xrotation Yrotation
        JOINT rFoot
        {
          OFFSET 0.73152 -45.1104 -5.12064
          CHANNELS 3 Zrotation Xrotation Yrotation
          End Site
          {
            OFFSET -1.1221 -3.69964 12.103
          }
        }
      }
    }
  }
  JOINT lButtock
  {
    OFFSET 8.77824 4.35084 1.2192
    CHANNELS 3 Zrotation Xrotation Yrotation
    JOINT lThigh
    {
      OFFSET 0 -1.70687 -2.19456
      CHANNELS 3 Zrotation Xrotation Yrotation
      JOINT lShin
      {
        OFFSET 0 -36.8199 0.73152
        CHANNELS 3 Zrotation Xrotation Yrotation
        JOINT lFoot
        {
          OFFSET -0.73152 -45.1104 -5.12064
          CHANNELS 3 Zrotation Xrotation Yrotation
          End Site
          {
            OFFSET 1.1221 -3.69964 12.103
          }
        }
      }
    }
  }
}
MOTION
Frames:	4
Frame Time:	0.00833333
-178.2 85.4571 11.6741 0.0 0.0 0.0 1.92988 -0.00172183 0.0523824 0.532079 0.005071 0.0921221 -3.61164e-14 -7.95139e-16 -7.45442e-17 -1.08291e-13 3.18055e-15 -2.51587e-16 -0.0 0.0 0.0 -0.0 0.0 0.0 -1.80413e-14 5.18315e-17 1.98785e-16 -3.80633e-13 1.00014e-15 -1.98785e-15 -6.57396e-12 2.00375e-12 3.81667e-14 -7.51903e-11 -1.75721e-12 -3.75305e-13 -1.77371e-10 5.38867e-13 -6.96541e-13 -3.06326e-10 9.31903e-13 -1.2102e-12 -1.77368e-10 5.38309e-13 -7.15625e-13 7.73091 5.47488 0.417314 -1.77373e-10 5.3821e-13 -6.96541e-13 2.90554 0.965183 0.102902 -1.77368e-10 5.38905e-13 -7.01312e-13 10.2786 0.731801 0.0259123 -1.77377e-10 5.42682e-13 -6.96541e-13 2.22167 -0.733487 -0.20892 -1.82381e-14 5.04727e-17 -2.98177e-16 -3.8332e-13 1.31074e-15 -2.98177e-15 -6.56745e-12 -1.92463e-12 2.8625e-14 -7.51933e-11 2.19337e-12 -3.4668e-13 -1.77366e-10 5.82028e-13 -6.96541e-13 -3.06295e-10 1.00506e-12 -1.18476e-12 -1.77369e-10 5.78861e-13 -6.87e-13 -7.73091 5.47488 -0.417314 -1.77364e-10 5.80948e-13 -6.93361e-13 -2.90554 0.965183 -0.102902 -1.77367e-10 5.81843e-13 -6.92566e-13 -10.2786 0.731801 -0.0259123 -1.77361e-10 5.83632e-13 -7.06083e-13 -2.22167 -0.733487 0.20892 -2.03217e-16 0.0 -3.88251e-19 1.95948 -7.26116 -0.192016 0.00412069 7.58528 0.107063 -0.521285 -0.330666 0.0523279 2.03217e-16 0.0 3.88251e-19 0.976679 -1.92613 0.000869831 0.00898715 -2.0786 0.0740628 0.487873 3.99809 -0.136737
-171.466 85.483 2.67783 52.3028 85.7248 52.5015 0.210259 0.897274 1.3858 1.346 -0.0366173 0.485655 2.11494 -0.370176 1.51903 -3.09742 3.38833 3.06443 -0.0 0.0 0.0 -0.0 0.0 0.0 -9.41342e-15 5.3783e-13 -5.71727e-14 22.2221 7.72143 -0.747214 -4.82687 -2.32928 7.38557 0.000699675 0.587033 0.0824864 -1.05819e-10 -3.16507e-11 -4.15821e-10 -1.84316e-10 -5.46899e-11 -7.19239e-10 -1.05816e-10 -3.16497e-11 -4.15837e-10 7.73091 5.47488 0.417314 -1.05819e-10 -3.16507e-11 -4.15824e-10 2.90554 0.965183 0.102902 -1.05816e-10 -3.16498e-11 -4.15826e-10 10.2786 0.731801 0.0259123 -1.05825e-10 -3.16472e-11 -4.15822e-10 2.22167 -0.733487 -0.20892 -9.57658e-15 5.3783e-13 -5.75722e-14 -22.0347 10.4125 -1.65102 3.27189 -1.33776 -5.26069 -0.0446023 4.68758 -0.650857 -6.25052e-10 2.00936e-10 1.64504e-10 -1.07737e-09 3.47608e-10 2.91475e-10 -6.25053e-10 2.00934e-10 1.64509e-10 -7.73091 5.47488 -0.417314 -6.2505e-10 2.00936e-10 1.64503e-10 -2.90554 0.965183 -0.102902 -6.25053e-10 2.00937e-10 1.64505e-10 -10.2786 0.731801 -0.0259123 -6.25047e-10 2.00939e-10 1.64494e-10 -2.22167 -0.733487 0.20892 -2.03217e-16 0.0 -3.88251e-19 -1.1422 -5.00728 -1.20257 0.00312931 8.13077 0.123145 -0.618483 -4.55821 -1.81493 2.03217e-16 0.0 3.88251e-19 1.56793 0.72947 -0.233723 0.00635582 -2.44461 0.0533774 0.628626 0.906804 3.19793
-171.497 85.4598 2.79409 49.6257 85.8206 49.9667 -1.63002 1.84171 2.79526 2.20491 -0.0664918 0.901 4.37444 -0.769936 3.12387 -6.78179 6.93623 6.33575 -0.0 0.0 0.0 -0.0 0.0 0.0 -8.95703e-16 1.10378e-12 -1.1938e-13 45.935 15.884 -1.56916 -9.281 -4.6616 15.23 -0.000400808 1.20974 0.170015 -3.27448e-11 -7.38141e-11 -8.65787e-10 -5.98466e-11 -1.27583e-10 -1.4975e-09 -3.27411e-11 -7.38115e-11 -8.65799e-10 7.73091 5.47488 0.417314 -3.27423e-11 -7.38137e-11 -8.65793e-10 2.90554 0.965183 0.102902 -3.27405e-11 -7.38125e-11 -8.65792e-10 10.2786 0.731801 0.0259123 -3.27498e-11 -7.38111e-11 -8.6579e-10 2.22167 -0.733487 -0.20892 -1.02389e-15 1.10378e-12 -1.19675e-13 -44.6303 21.3878 -3.6028 6.46444 -2.71411 -10.8305 0.0255554 9.64223 -1.35372 -1.11908e-09 4.2199e-10 3.45366e-10 -1.92829e-09 7.3003e-10 6.11887e-10 -1.11908e-09 4.2199e-10 3.45366e-10 -7.73091 5.47488 -0.417314 -1.11908e-09 4.21992e-10 3.45361e-10 -2.90554 0.965183 -0.102902 -1.11909e-09 4.21992e-10 3.45364e-10 -10.2786 0.731801 -0.0259123 -1.11908e-09 4.21995e-10 3.45356e-10 -2.22167 -0.733487 0.20892 -2.03217e-16 0.0 -3.88251e-19 -4.30635 -2.63099 -2.25597 0.00173724 8.70768 0.14021 -1.02581 -9.01516 -3.83334 2.03217e-16 0.0 3.88251e-19 2.24311 3.53157 -0.477173 0.00332889 -2.82933 0.0315119 1.16767 -2.34387 6.72264
-171.505 85.4548 2.85824 49.1058 85.8198 49.4802 -3.35451 2.68931 4.05659 2.97556 -0.119968 1.27272 6.40363 -1.1074 4.55784 -10.3888 10.0479 9.32141 -0.0 0.0 0.0 -0.0 0.0 0.0 7.84241e-15 1.61339e-12 -1.71916e-13 67.3154 23.1478 -2.41591 -12.7192 -6.52441 22.2903 -0.00297376 1.76108 0.247563 3.72834e-11 -9.60297e-11 -1.24607e-09 5.97037e-11 -1.65934e-10 -2.1553e-09 3.72872e-11 -9.60256e-11 -1.24608e-09 7.73091 5.47488 0.417314 3.72876e-11 -9.60287e-11 -1.24608e-09 2.90554 0.965183 0.102902 3.72886e-11 -9.60273e-11 -1.24607e-09 10.2786 0.731801 0.0259123 3.7279e-11 -9.60269e-11 -1.24607e-09 2.22167 -0.733487 -0.20892 7.74637e-15 1.61339e-12 -1.7212e-13 -64.0496 31.1246 -5.69317 9.08764 -3.87816 -15.8149 0.19401 14.0554 -2.00612 -1.52042e-09 6.01645e-10 4.94905e-10 -2.61952e-09 1.04081e-09 8.76794e-10 -1.52042e-09 6.01645e-10 4.94901e-10 -7.73091 5.47488 -0.417314 -1.52042e-09 6.01647e-10 4.94897e-10 -2.90554 0.965183 -0.102902 -1.52043e-09 6.01647e-10 4.949e-10 -10.2786 0.731801 -0.0259123 -1.52042e-09 6.0165e-10 4.94895e-10 -2.22167 -0.733487 0.20892 -2.03217e-16 0.0 -3.88251e-19 -7.10734 -0.501958 -3.21311 0.000215446 9.22176 0.155478 -1.65649 -12.9584 -5.67727 2.03217e-16 0.0 3.88251e-19 2.81594 6.04023 -0.706774 0.000299191 -3.17665 0.0119767 1.98686 -5.19337 9.90647
